<svg height='100px' width='100px'  fill="#000000" xmlns:dc="http://purl.org/dc/elements/1.1/" xmlns:cc="http://creativecommons.org/ns#" xmlns:rdf="http://www.w3.org/1999/02/22-rdf-syntax-ns#" xmlns:svg="http://www.w3.org/2000/svg" xmlns="http://www.w3.org/2000/svg" xmlns:sodipodi="http://sodipodi.sourceforge.net/DTD/sodipodi-0.dtd" xmlns:inkscape="http://www.inkscape.org/namespaces/inkscape" viewBox="0 0 48 48.000001" version="1.1" x="0px" y="0px"><g transform="translate(0,-1004.3622)"><path style="" d="m 24,1004.3622 a 23.999998,23.999998 0 0 0 -24,24 23.999998,23.999998 0 0 0 24,24 23.999998,23.999998 0 0 0 24,-24 23.999998,23.999998 0 0 0 -24,-24 z m -11,12 4,0 0.601562,2 1.898438,0 0.5,-1 6,0 0.0078,0 c 1.053459,0 2.085569,0.477 2.986329,1.3789 l 0.03125,0.031 5.458984,4.6484 c 0.443056,0.3773 0.676606,0.9223 0.384766,1.4219 -0.29184,0.4998 -0.945464,0.6886 -1.439453,0.3808 l -5.441407,-3.3906 -0.08789,-0.041 c -0.413348,-0.2798 -0.901489,-0.4297 -1.400379,-0.4297 l -0.5,0 -0.5,4 -0.5,0 0,20 -3,0 0,-20 -0.5,0 -0.5,-4 -1,0 -0.5,-1 -2,0 -0.5,2 -4,0 0,-6 z" fill="#000000" fill-opacity="1" stroke="none"></path></g></svg>