<svg height='100px' width='100px'  fill="#000000" xmlns:dc="http://purl.org/dc/elements/1.1/" xmlns:cc="http://creativecommons.org/ns#" xmlns:rdf="http://www.w3.org/1999/02/22-rdf-syntax-ns#" xmlns:svg="http://www.w3.org/2000/svg" xmlns="http://www.w3.org/2000/svg" xmlns:sodipodi="http://sodipodi.sourceforge.net/DTD/sodipodi-0.dtd" xmlns:inkscape="http://www.inkscape.org/namespaces/inkscape" viewBox="0 0 1279.0174 1279.1992" version="1.1" x="0px" y="0px"><g transform="translate(9701.856,-1927.0657)"><path style="" d="m -9106.0973,3205.8014 c -20.5894,-1.755 -45.7548,-4.8151 -61.8496,-7.521 -232.2831,-39.0512 -423.5294,-201.1875 -500.3924,-424.2267 -14.6274,-42.4453 -25.1549,-89.6249 -31.0953,-139.3542 -3.2286,-27.0283 -3.2286,-109.2217 0,-136.25 17.7073,-148.2356 78.1511,-276.1044 179.5379,-379.8119 104.1373,-106.5208 236.6947,-170.9063 389.4244,-189.1504 27.0284,-3.2286 109.2217,-3.2286 136.2501,0 152.7297,18.2441 285.2871,82.6296 389.4244,189.1504 101.3868,103.7075 161.8306,231.5763 179.5378,379.8119 3.2287,27.0283 3.2287,109.2217 0,136.25 -17.7072,148.2357 -78.151,276.1044 -179.5378,379.8119 -103.9338,106.3127 -236.998,171.021 -388.7994,189.0709 -15.9853,1.9008 -97.3956,3.5065 -112.5001,2.2191 z m 342.5001,-567.0354 0,-234.0586 -72.8085,-72.8164 -72.8085,-72.8165 -228.4415,0 -228.4416,0 0,306.875 0,306.875 301.25,0 301.2501,0 0,-234.0585 z m -516.5495,52.1834 -0.3256,-113.1251 215.3125,10e-5 215.3126,1e-4 0,113.125 0,113.125 -214.9869,0 -214.9869,0 -0.3257,-113.1251 z m 395.5628,51.3002 c 0.1989,-14.0661 0.055,-26.863 -0.3197,-28.4375 l -0.6813,-2.8626 -178.6937,0 -178.6937,0 -0.3359,28.4375 -0.336,28.4375 179.3493,0 179.3493,0 0.3617,-25.5749 z m -0.2633,-93.8001 0,-28.125 -179.3751,0 -179.375,0 0,28.125 0,28.125 179.375,0 179.3751,0 0,-28.125 z m -362.0207,-218.6397 c -22.6608,-5.4995 -37.4537,-28.3605 -33.032,-51.0478 3.7199,-19.0866 16.8597,-32.2121 36.0209,-35.9818 18.2321,-3.587 37.9226,5.7422 46.8219,22.1838 14.1383,26.1204 -0.096,58.1407 -28.8559,64.9099 -8.4813,1.9962 -12.5158,1.9839 -20.9549,-0.064 z" fill="#000000"></path></g></svg>