<svg height='100px' width='100px'  fill="#000000" xmlns:dc="http://purl.org/dc/elements/1.1/" xmlns:cc="http://creativecommons.org/ns#" xmlns:rdf="http://www.w3.org/1999/02/22-rdf-syntax-ns#" xmlns:svg="http://www.w3.org/2000/svg" xmlns="http://www.w3.org/2000/svg" xmlns:sodipodi="http://sodipodi.sourceforge.net/DTD/sodipodi-0.dtd" xmlns:inkscape="http://www.inkscape.org/namespaces/inkscape" viewBox="0 0 48 48.000001" version="1.1" x="0px" y="0px"><g transform="translate(0,-1004.3622)"><path style="" d="M 24 0 A 23.999998 23.999998 0 0 0 0 24 A 23.999998 23.999998 0 0 0 24 48 A 23.999998 23.999998 0 0 0 48 24 A 23.999998 23.999998 0 0 0 24 0 z M 21.003906 10 L 26.003906 10 L 26.003906 12.5 C 26.003906 13.331 25.334906 14 24.503906 14 L 24.503906 26.996094 L 26.5 26.996094 C 27.33101 26.996094 28 27.665094 28 28.496094 L 28 34.496094 L 28.007812 34.496094 C 28.007822 35.102894 27.775497 35.708928 27.310547 36.173828 C 26.188057 37.450528 24.503906 39 23.503906 39 C 22.503906 39 20.927566 37.404128 19.697266 36.173828 C 19.232366 35.708828 19 35.102894 19 34.496094 L 19 28.496094 C 19 27.665094 19.669 26.996094 20.5 26.996094 L 22.503906 26.996094 L 22.503906 14 C 21.672906 14 21.003906 13.331 21.003906 12.5 L 26 12.5 L 26 11.5 L 21.003906 11.5 L 21.003906 10 z M 25.994141 29.34375 C 25.718769 29.34805 25.498753 29.574209 25.501953 29.849609 L 25.501953 34.273438 C 25.429923 34.359438 24.721518 35.220903 23.164062 36.658203 C 22.668744 37.111103 23.353954 37.851378 23.84375 37.392578 C 25.515794 35.849478 26.386719 34.794922 26.386719 34.794922 C 26.460983 34.705422 26.501729 34.592862 26.501953 34.476562 L 26.501953 29.849609 C 26.505258 29.568109 26.275629 29.34375 25.994141 29.34375 z " transform="translate(0,1004.3622)" fill="#000000" fill-opacity="1" fill-rule="evenodd" stroke="none"></path></g></svg>